<svg xmlns="http://www.w3.org/2000/svg" viewBox="0 0 512 512">
  <circle cx="256" cy="256" r="256" fill="#FF0000"/>
  <path d="M370 280c-60-36-160-40-217-22-9 3-18-2-21-11s2-18 11-21c62-20 172-16 239 25 8 5 11 15 6 23-5 8-15 11-23 6zm-19 48c-4 7-13 9-20 5-50-30-126-39-185-21-7 2-15-2-17-9s2-15 9-17c67-20 151-10 208 24 7 4 9 13 5 20zm-22 46c-3 5-10 7-15 4-44-26-99-32-164-18-6 2-12-2-13-8-2-6 2-12 8-13 72-16 133-9 182 21 5 3 7 10 4 15zm-73-234c-83 0-150 67-150 150s67 150 150 150 150-67 150-150-67-150-150-150z" fill="#000"/>
</svg>
